# xmcd CD database file
#
# Track frame offsets:
#	150
#	22155
#	53809
#	78082
#	94225
#	115164
#
# Disc length: 2004 seconds
#
# Revision: 0
# Processed by: cddbd v1.5.2PL0 Copyright (c) Steve Scherf et al.
# Submitted via: CDex 2.07
#
DISCID=4307d206
DTITLE=Herbie Mann - Brazil Blues
DYEAR=1900
DGENRE=Jazz
TTITLE0=Brazil
TTITLE1=Copacabana
TTITLE2=Minha Saudade
TTITLE3=B N Blues
TTITLE4=One Note Samba
TTITLE5=Me Faz Recordar
EXTD=
EXTT0=
EXTT1=
EXTT2=
EXTT3=
EXTT4=
EXTT5=
PLAYORDER=
